<svg class="icon" viewBox="0 0 80 80" fill="none" xmlns="http://www.w3.org/2000/svg">
<g id="Language">
<g id="line">
<path id="Line 4" d="M17 70C34.3341 78.0715 44.4409 77.6599 63 70" stroke="#AC2EFF" stroke-width="2"/>
<path id="Vector 6" d="M64.8875 69.0326L56.5081 67.5211L61.0134 76.1207L64.8875 69.0326Z" fill="#AC2EFF" stroke="#AC2EFF"/>
</g>
<g id="SmallA2">
<path id="Rectangle 47" d="M41 11.7621V57.6879L79 47.2379V1.31213L41 11.7621Z" fill="white" stroke="#AC2EFF" stroke-width="2"/>
<path id="A" d="M68.1889 24.0963C68.7178 23.9385 69.0818 24.1931 69.2808 24.8601C69.4935 25.573 69.4049 26.3257 69.0152 27.1182C68.3395 28.547 67.83 30.2393 67.4868 32.195C66.9673 35.1551 67.0164 37.67 67.6339 39.7399C67.874 40.5448 68.1869 41.0901 68.5727 41.3758C68.9815 41.6545 69.3698 41.739 69.7378 41.6293C70.8417 41.2999 71.862 40.0188 72.7988 37.7858C73.6088 35.7158 74.1221 33.7845 74.3387 31.9918C74.4129 31.5689 74.5488 31.353 74.7465 31.3441C74.9442 31.3352 75.0175 31.5388 74.9663 31.9548C74.6477 34.3289 74.1272 36.4879 73.4047 38.4315C73.0376 39.4677 72.4764 40.399 71.7211 41.2254C70.9727 42.0748 70.1385 42.6367 69.2186 42.9112C68.3217 43.1788 67.5334 43.0132 66.8539 42.4145C66.1813 41.8387 65.6974 41.0564 65.4024 40.0675C65.1074 39.0786 64.9308 38.0668 64.8726 37.0323C64.8374 35.9909 64.9364 35.1474 65.1695 34.5018C63.6769 37.9775 61.8701 40.946 59.7492 43.407C58.6231 44.6696 57.2447 45.6318 55.6138 46.2937C55.4597 46.3647 55.1871 46.4585 54.7962 46.5752C54.4282 46.685 53.9385 46.6808 53.3273 46.5626C51.4655 46.3666 50.1367 44.9348 49.3408 42.2669C48.5381 39.5761 48.5441 36.4061 49.3589 32.7569C49.7848 30.8266 50.3611 29.0643 51.0876 27.47C49.3272 27.1938 47.9405 26.7434 46.9277 26.1189C46.1905 25.6626 45.6916 24.9975 45.4308 24.1235C45.1701 23.2496 45.1779 22.6462 45.4543 22.3133C45.5951 21.9457 45.7849 21.8264 46.0238 21.9555C46.2235 22.1214 46.299 22.3743 46.2502 22.7145C46.2244 23.0478 46.2527 23.3524 46.335 23.6284C46.5203 24.2493 47.0596 24.8398 47.9529 25.3998C48.8463 25.9598 50.0261 26.3466 51.4924 26.5603C55.1063 18.9454 59.8225 14.27 65.6411 12.5341C67.458 11.9921 69.0189 11.9773 70.3238 12.4896C71.6449 12.9721 72.4975 13.8573 72.8818 15.1452C73.3003 16.5481 72.9231 18.1383 71.7503 19.9157C71.1742 20.8389 70.2372 21.7697 68.9392 22.7079C66.9647 24.1485 64.448 25.3251 61.3892 26.2376C58.3534 27.1433 55.7391 27.5726 53.5461 27.5255C52.2044 31.5073 51.4225 34.7209 51.2003 37.1665C50.9713 39.5891 51.0352 41.3983 51.392 42.5942C51.4675 42.8472 51.5476 43.0738 51.6323 43.2739C52.4778 45.1004 53.7285 45.7667 55.3843 45.2727C57.2472 44.7169 59.1072 43.0601 60.9642 40.3021C62.273 38.3087 63.4649 36.0497 64.54 33.525C65.6151 31.0003 66.3253 28.8474 66.6706 27.0664C67.0388 25.2785 67.5449 24.2885 68.1889 24.0963ZM71.3439 15.1532C71.0488 14.1642 70.4084 13.5288 69.4227 13.2468C68.4599 12.958 67.2656 13.0263 65.8397 13.4517C64.4138 13.8771 63.0565 14.5324 61.7679 15.4178C60.5022 16.2963 59.3822 17.3692 58.4078 18.6367C57.4565 19.8973 56.6385 21.1431 55.9539 22.3742C55.2923 23.5984 54.605 25.0307 53.8922 26.6709C55.7818 26.7083 57.9799 26.3531 60.4868 25.6052C65.2014 24.1987 68.4133 22.414 70.1223 20.2511C71.4512 18.5774 71.8584 16.878 71.3439 15.1532Z" fill="#AC2EFF"/>
</g>
<g id="CapA2">
<path id="Rectangle 46" d="M0 0L40 11V59L0 48V0Z" fill="#AC2EFF"/>
<path id="A_2" d="M23.5 39.6705L13 36.6705L10.5 41.6705L5.00005 40.4642L16.5 16.1705L21.5 17.6706L31 47.1705L25.5 45.6705L23.5 39.6705ZM22 34.1705L18.5 24.6705L15 32.1705L22 34.1705Z" fill="white"/>
</g>
<g id="SmallA1">
<path id="Rectangle 47_2" d="M1 22.7621V68.6879L39 58.2379V12.3121L1 22.7621Z" fill="white" stroke="#AC2EFF" stroke-width="2"/>
<path id="A_3" d="M28.1889 35.0963C28.7178 34.9385 29.0818 35.1931 29.2808 35.8601C29.4935 36.573 29.4049 37.3257 29.0152 38.1182C28.3395 39.547 27.83 41.2393 27.4868 43.195C26.9673 46.1551 27.0164 48.67 27.6339 50.7399C27.874 51.5448 28.1869 52.0901 28.5727 52.3758C28.9815 52.6545 29.3698 52.739 29.7378 52.6293C30.8417 52.2999 31.862 51.0188 32.7988 48.7858C33.6088 46.7158 34.1221 44.7845 34.3387 42.9918C34.4129 42.5689 34.5488 42.353 34.7465 42.3441C34.9442 42.3352 35.0175 42.5388 34.9663 42.9548C34.6477 45.3289 34.1272 47.4879 33.4047 49.4315C33.0376 50.4677 32.4764 51.399 31.7211 52.2254C30.9727 53.0748 30.1385 53.6367 29.2186 53.9112C28.3217 54.1788 27.5334 54.0132 26.8539 53.4145C26.1813 52.8387 25.6974 52.0564 25.4024 51.0675C25.1074 50.0786 24.9308 49.0668 24.8726 48.0323C24.8374 46.9909 24.9364 46.1474 25.1695 45.5018C23.6769 48.9775 21.8701 51.946 19.7492 54.407C18.6231 55.6696 17.2447 56.6318 15.6138 57.2937C15.4597 57.3647 15.1871 57.4585 14.7962 57.5752C14.4282 57.685 13.9385 57.6808 13.3273 57.5626C11.4655 57.3666 10.1367 55.9348 9.34085 53.2669C8.5381 50.5761 8.5441 47.4061 9.35887 43.7569C9.78481 41.8266 10.3611 40.0643 11.0876 38.47C9.32717 38.1938 7.94054 37.7434 6.92773 37.1189C6.19052 36.6626 5.69156 35.9975 5.43083 35.1235C5.17011 34.2496 5.17793 33.6462 5.4543 33.3133C5.59509 32.9457 5.78492 32.8264 6.0238 32.9555C6.22354 33.1214 6.29901 33.3743 6.25021 33.7145C6.22441 34.0478 6.25268 34.3524 6.33502 34.6284C6.52027 35.2493 7.05958 35.8398 7.95294 36.3998C8.84631 36.9598 10.0261 37.3466 11.4924 37.5603C15.1063 29.9454 19.8225 25.27 25.6411 23.5341C27.458 22.9921 29.0189 22.9773 30.3238 23.4896C31.6449 23.9721 32.4975 24.8573 32.8818 26.1452C33.3003 27.5481 32.9231 29.1383 31.7503 30.9157C31.1742 31.8389 30.2372 32.7697 28.9392 33.7079C26.9647 35.1485 24.448 36.3251 21.3892 37.2376C18.3534 38.1433 15.7391 38.5726 13.5461 38.5255C12.2044 42.5073 11.4225 45.7209 11.2003 48.1665C10.9713 50.5891 11.0352 52.3983 11.392 53.5942C11.4675 53.8472 11.5476 54.0738 11.6323 54.2739C12.4778 56.1004 13.7285 56.7667 15.3843 56.2727C17.2472 55.7169 19.1072 54.0601 20.9642 51.3021C22.273 49.3087 23.4649 47.0497 24.54 44.525C25.6151 42.0003 26.3253 39.8474 26.6706 38.0664C27.0388 36.2785 27.5449 35.2885 28.1889 35.0963ZM31.3439 26.1532C31.0488 25.1642 30.4084 24.5288 29.4227 24.2468C28.4599 23.958 27.2656 24.0263 25.8397 24.4517C24.4138 24.8771 23.0565 25.5324 21.7679 26.4178C20.5022 27.2963 19.3822 28.3692 18.4078 29.6367C17.4565 30.8973 16.6385 32.1431 15.9539 33.3742C15.2923 34.5984 14.605 36.0307 13.8922 37.6709C15.7818 37.7083 17.9799 37.3531 20.4868 36.6052C25.2014 35.1987 28.4133 33.414 30.1223 31.2511C31.4512 29.5774 31.8584 27.878 31.3439 26.1532Z" fill="#AC2EFF"/>
</g>
<g id="CapA1">
<path id="Rectangle 46_2" d="M40 11L80 22V70L40 59V11Z" fill="#AC2EFF"/>
<path id="A_4" d="M64.5 49.6705L54 46.6705L51.5 51.6705L46 50.4642L57.5 26.1705L62.5 27.6706L72 57.1705L66.5 55.6705L64.5 49.6705ZM63 44.1705L59.5 34.6705L56 42.1705L63 44.1705Z" fill="white"/>
</g>
</g>
</svg>
