<svg class="icon" viewBox="0 0 120 90" fill="none" xmlns="http://www.w3.org/2000/svg">
<g id="Language">
<g id="line">
<path id="Line 4" d="M37 77C54.3341 85.0715 64.4409 84.6599 83 77" stroke="#AC2EFF" stroke-width="2"/>
<path id="Vector 6" d="M84.8875 76.0326L76.5081 74.5211L81.0134 83.1207L84.8875 76.0326Z" fill="#AC2EFF" stroke="#AC2EFF"/>
</g>
<g id="SmallA2">
<path id="Rectangle 47" d="M61 18.7621V64.6879L99 54.2379V8.31213L61 18.7621Z" fill="white" stroke="#AC2EFF" stroke-width="2"/>
<path id="A" d="M88.1889 31.0963C88.7178 30.9385 89.0818 31.1931 89.2808 31.8601C89.4935 32.573 89.4049 33.3257 89.0152 34.1182C88.3395 35.547 87.83 37.2393 87.4868 39.195C86.9673 42.1551 87.0164 44.67 87.6339 46.7399C87.874 47.5448 88.1869 48.0901 88.5727 48.3758C88.9815 48.6545 89.3698 48.739 89.7378 48.6293C90.8417 48.2999 91.862 47.0188 92.7988 44.7858C93.6088 42.7158 94.1221 40.7845 94.3387 38.9918C94.4129 38.5689 94.5488 38.353 94.7465 38.3441C94.9442 38.3352 95.0175 38.5388 94.9663 38.9548C94.6477 41.3289 94.1272 43.4879 93.4047 45.4315C93.0376 46.4677 92.4764 47.399 91.7211 48.2254C90.9727 49.0748 90.1385 49.6367 89.2186 49.9112C88.3217 50.1788 87.5334 50.0132 86.8539 49.4145C86.1813 48.8387 85.6974 48.0564 85.4024 47.0675C85.1074 46.0786 84.9308 45.0668 84.8726 44.0323C84.8374 42.9909 84.9364 42.1474 85.1695 41.5018C83.6769 44.9775 81.8701 47.946 79.7492 50.407C78.6231 51.6696 77.2447 52.6318 75.6138 53.2937C75.4597 53.3647 75.1871 53.4585 74.7962 53.5752C74.4282 53.685 73.9385 53.6808 73.3273 53.5626C71.4655 53.3666 70.1367 51.9348 69.3408 49.2669C68.5381 46.5761 68.5441 43.4061 69.3589 39.7569C69.7848 37.8266 70.3611 36.0643 71.0876 34.47C69.3272 34.1938 67.9405 33.7434 66.9277 33.1189C66.1905 32.6626 65.6916 31.9975 65.4308 31.1235C65.1701 30.2496 65.1779 29.6462 65.4543 29.3133C65.5951 28.9457 65.7849 28.8264 66.0238 28.9555C66.2235 29.1214 66.299 29.3743 66.2502 29.7145C66.2244 30.0478 66.2527 30.3524 66.335 30.6284C66.5203 31.2493 67.0596 31.8398 67.9529 32.3998C68.8463 32.9598 70.0261 33.3466 71.4924 33.5603C75.1063 25.9454 79.8225 21.27 85.6411 19.5341C87.458 18.9921 89.0189 18.9773 90.3238 19.4896C91.6449 19.9721 92.4975 20.8573 92.8818 22.1452C93.3003 23.5481 92.9231 25.1383 91.7503 26.9157C91.1742 27.8389 90.2372 28.7697 88.9392 29.7079C86.9647 31.1485 84.448 32.3251 81.3892 33.2376C78.3534 34.1433 75.7391 34.5726 73.5461 34.5255C72.2044 38.5073 71.4225 41.7209 71.2003 44.1665C70.9713 46.5891 71.0352 48.3983 71.392 49.5942C71.4675 49.8472 71.5476 50.0738 71.6323 50.2739C72.4778 52.1004 73.7285 52.7667 75.3843 52.2727C77.2472 51.7169 79.1072 50.0601 80.9642 47.3021C82.273 45.3087 83.4649 43.0497 84.54 40.525C85.6151 38.0003 86.3253 35.8474 86.6706 34.0664C87.0388 32.2785 87.5449 31.2885 88.1889 31.0963ZM91.3439 22.1532C91.0488 21.1642 90.4084 20.5288 89.4227 20.2468C88.4599 19.958 87.2656 20.0263 85.8397 20.4517C84.4138 20.8771 83.0565 21.5324 81.7679 22.4178C80.5022 23.2963 79.3822 24.3692 78.4078 25.6367C77.4565 26.8973 76.6385 28.1431 75.9539 29.3742C75.2923 30.5984 74.605 32.0307 73.8922 33.6709C75.7818 33.7083 77.9799 33.3531 80.4868 32.6052C85.2014 31.1987 88.4133 29.414 90.1223 27.2511C91.4512 25.5774 91.8584 23.878 91.3439 22.1532Z" fill="#AC2EFF"/>
</g>
<g id="CapA2">
<path id="Rectangle 46" d="M20 7L60 18V66L20 55V7Z" fill="#AC2EFF"/>
<path id="A_2" d="M43.5 46.6705L33 43.6705L30.5 48.6705L25 47.4642L36.5 23.1705L41.5 24.6706L51 54.1705L45.5 52.6705L43.5 46.6705ZM42 41.1705L38.5 31.6705L35 39.1705L42 41.1705Z" fill="white"/>
</g>
<g id="SmallA1">
<path id="Rectangle 47_2" d="M21 29.7621V75.6879L59 65.2379V19.3121L21 29.7621Z" fill="white" stroke="#AC2EFF" stroke-width="2"/>
<path id="A_3" d="M48.1889 42.0963C48.7178 41.9385 49.0818 42.1931 49.2808 42.8601C49.4935 43.573 49.4049 44.3257 49.0152 45.1182C48.3395 46.547 47.83 48.2393 47.4868 50.195C46.9673 53.1551 47.0164 55.67 47.6339 57.7399C47.874 58.5448 48.1869 59.0901 48.5727 59.3758C48.9815 59.6545 49.3698 59.739 49.7378 59.6293C50.8417 59.2999 51.862 58.0188 52.7988 55.7858C53.6088 53.7158 54.1221 51.7845 54.3387 49.9918C54.4129 49.5689 54.5488 49.353 54.7465 49.3441C54.9442 49.3352 55.0175 49.5388 54.9663 49.9548C54.6477 52.3289 54.1272 54.4879 53.4047 56.4315C53.0376 57.4677 52.4764 58.399 51.7211 59.2254C50.9727 60.0748 50.1385 60.6367 49.2186 60.9112C48.3217 61.1788 47.5334 61.0132 46.8539 60.4145C46.1813 59.8387 45.6974 59.0564 45.4024 58.0675C45.1074 57.0786 44.9308 56.0668 44.8726 55.0323C44.8374 53.9909 44.9364 53.1474 45.1695 52.5018C43.6769 55.9775 41.8701 58.946 39.7492 61.407C38.6231 62.6696 37.2447 63.6318 35.6138 64.2937C35.4597 64.3647 35.1871 64.4585 34.7962 64.5752C34.4282 64.685 33.9385 64.6808 33.3273 64.5626C31.4655 64.3666 30.1367 62.9348 29.3408 60.2669C28.5381 57.5761 28.5441 54.4061 29.3589 50.7569C29.7848 48.8266 30.3611 47.0643 31.0876 45.47C29.3272 45.1938 27.9405 44.7434 26.9277 44.1189C26.1905 43.6626 25.6916 42.9975 25.4308 42.1235C25.1701 41.2496 25.1779 40.6462 25.4543 40.3133C25.5951 39.9457 25.7849 39.8264 26.0238 39.9555C26.2235 40.1214 26.299 40.3743 26.2502 40.7145C26.2244 41.0478 26.2527 41.3524 26.335 41.6284C26.5203 42.2493 27.0596 42.8398 27.9529 43.3998C28.8463 43.9598 30.0261 44.3466 31.4924 44.5603C35.1063 36.9454 39.8225 32.27 45.6411 30.5341C47.458 29.9921 49.0189 29.9773 50.3238 30.4896C51.6449 30.9721 52.4975 31.8573 52.8818 33.1452C53.3003 34.5481 52.9231 36.1383 51.7503 37.9157C51.1742 38.8389 50.2372 39.7697 48.9392 40.7079C46.9647 42.1485 44.448 43.3251 41.3892 44.2376C38.3534 45.1433 35.7391 45.5726 33.5461 45.5255C32.2044 49.5073 31.4225 52.7209 31.2003 55.1665C30.9713 57.5891 31.0352 59.3983 31.392 60.5942C31.4675 60.8472 31.5476 61.0738 31.6323 61.2739C32.4778 63.1004 33.7285 63.7667 35.3843 63.2727C37.2472 62.7169 39.1072 61.0601 40.9642 58.3021C42.273 56.3087 43.4649 54.0497 44.54 51.525C45.6151 49.0003 46.3253 46.8474 46.6706 45.0664C47.0388 43.2785 47.5449 42.2885 48.1889 42.0963ZM51.3439 33.1532C51.0488 32.1642 50.4084 31.5288 49.4227 31.2468C48.4599 30.958 47.2656 31.0263 45.8397 31.4517C44.4138 31.8771 43.0565 32.5324 41.7679 33.4178C40.5022 34.2963 39.3822 35.3692 38.4078 36.6367C37.4565 37.8973 36.6385 39.1431 35.9539 40.3742C35.2923 41.5984 34.605 43.0307 33.8922 44.6709C35.7818 44.7083 37.9799 44.3531 40.4868 43.6052C45.2014 42.1987 48.4133 40.414 50.1223 38.2511C51.4512 36.5774 51.8584 34.878 51.3439 33.1532Z" fill="#AC2EFF"/>
</g>
<g id="CapA1">
<path id="Rectangle 46_2" d="M60 18L100 29V77L60 66V18Z" fill="#AC2EFF"/>
<path id="A_4" d="M84.5 56.6705L74 53.6705L71.5 58.6705L66 57.4642L77.5 33.1705L82.5 34.6706L92 64.1705L86.5 62.6705L84.5 56.6705ZM83 51.1705L79.5 41.6705L76 49.1705L83 51.1705Z" fill="white"/>
</g>
</g>
</svg>
