<svg width="132" height="29" viewBox="0 0 132 29" fill="none" xmlns="http://www.w3.org/2000/svg">
<g id="PortFolio">
<path d="M31.5605 23.192C30.2485 23.192 29.0645 22.912 28.0085 22.352C26.9685 21.792 26.1445 20.992 25.5365 19.952C24.9445 18.912 24.6485 17.696 24.6485 16.304C24.6485 14.928 24.9525 13.72 25.5605 12.68C26.1685 11.624 27.0005 10.816 28.0565 10.256C29.1125 9.69602 30.2965 9.41601 31.6085 9.41601C32.9205 9.41601 34.1045 9.69602 35.1605 10.256C36.2165 10.816 37.0485 11.624 37.6565 12.68C38.2645 13.72 38.5685 14.928 38.5685 16.304C38.5685 17.68 38.2565 18.896 37.6325 19.952C37.0245 20.992 36.1845 21.792 35.1125 22.352C34.0565 22.912 32.8725 23.192 31.5605 23.192ZM31.5605 19.64C32.3445 19.64 33.0085 19.352 33.5525 18.776C34.1125 18.2 34.3925 17.376 34.3925 16.304C34.3925 15.232 34.1205 14.408 33.5765 13.832C33.0485 13.256 32.3925 12.968 31.6085 12.968C30.8085 12.968 30.1445 13.256 29.6165 13.832C29.0885 14.392 28.8245 15.216 28.8245 16.304C28.8245 17.376 29.0805 18.2 29.5925 18.776C30.1205 19.352 30.7765 19.64 31.5605 19.64Z" fill="white"/>
<path d="M44.8498 11.84C45.3298 11.104 45.9298 10.528 46.6498 10.112C47.3698 9.68002 47.6058 9.46402 48.4858 9.46402V13.808H47.9218C46.8978 13.808 46.1298 14.032 45.6178 14.48C45.1058 14.912 44.8498 15.68 44.8498 16.784V23H40.7458V9.60802H44.8498V11.84Z" fill="white"/>
<path d="M71.7294 6.15202V9.44002H64.8654V12.992H70.0014V16.184H64.8654V23H60.7614V6.15202H71.7294Z" fill="white"/>
<path d="M79.9824 23.192C78.6704 23.192 77.4864 22.912 76.4304 22.352C75.3904 21.792 74.5664 20.992 73.9584 19.952C73.3664 18.912 73.0704 17.696 73.0704 16.304C73.0704 14.928 73.3744 13.72 73.9824 12.68C74.5904 11.624 75.4224 10.816 76.4784 10.256C77.5344 9.69602 78.7184 9.41601 80.0304 9.41601C81.3424 9.41601 82.5264 9.69602 83.5824 10.256C84.6384 10.816 85.4704 11.624 86.0784 12.68C86.6864 13.72 86.9904 14.928 86.9904 16.304C86.9904 17.68 86.6784 18.896 86.0544 19.952C85.4464 20.992 84.6064 21.792 83.5344 22.352C82.4784 22.912 81.2944 23.192 79.9824 23.192ZM79.9824 19.64C80.7664 19.64 81.4304 19.352 81.9744 18.776C82.5344 18.2 82.8144 17.376 82.8144 16.304C82.8144 15.232 82.5424 14.408 81.9984 13.832C81.4704 13.256 80.8144 12.968 80.0304 12.968C79.2304 12.968 78.5664 13.256 78.0384 13.832C77.5104 14.392 77.2464 15.216 77.2464 16.304C77.2464 17.376 77.5024 18.2 78.0144 18.776C78.5424 19.352 79.1984 19.64 79.9824 19.64Z" fill="white"/>
<path d="M93.2717 19.832H98.6477V23H89.1677V6.15202H93.2717V19.832Z" fill="white"/>
<path d="M102.576 9.716C101.856 9.716 101.264 9.508 100.8 9.092C100.352 8.66 100.128 8.132 100.128 7.508C100.128 6.868 100.352 6.34 100.8 5.924C101.264 5.492 101.856 5.276 102.576 5.276C103.28 5.276 103.856 5.492 104.304 5.924C104.768 6.34 105 6.868 105 7.508C105 8.132 104.768 8.66 104.304 9.092C103.856 9.508 103.28 9.716 102.576 9.716ZM104.616 11.108L104.604 23H100.5L100.512 11.108H104.616Z" fill="white"/>
<path d="M113.779 23.192C112.467 23.192 111.283 22.912 110.227 22.352C109.187 21.792 108.363 20.992 107.755 19.952C107.163 18.912 106.867 17.696 106.867 16.304C106.867 14.928 107.171 13.72 107.779 12.68C108.387 11.624 109.219 10.816 110.275 10.256C111.331 9.69602 112.515 9.41601 113.827 9.41601C115.139 9.41601 116.323 9.69602 117.379 10.256C118.435 10.816 119.267 11.624 119.875 12.68C120.483 13.72 120.787 14.928 120.787 16.304C120.787 17.68 120.475 18.896 119.851 19.952C119.243 20.992 118.403 21.792 117.331 22.352C116.275 22.912 115.091 23.192 113.779 23.192ZM113.779 19.64C114.563 19.64 115.227 19.352 115.771 18.776C116.331 18.2 116.611 17.376 116.611 16.304C116.611 15.232 116.339 14.408 115.795 13.832C115.267 13.256 114.611 12.968 113.827 12.968C113.027 12.968 112.363 13.256 111.835 13.832C111.307 14.392 111.043 15.216 111.043 16.304C111.043 17.376 111.299 18.2 111.811 18.776C112.339 19.352 112.995 19.64 113.779 19.64Z" fill="white"/>
<path fill-rule="evenodd" clip-rule="evenodd" d="M23.328 11.576C23.328 12.552 23.104 13.448 22.656 14.264C22.208 15.064 21.52 15.712 20.592 16.208C19.664 16.704 18.512 16.952 17.136 16.952H14.592V23H10.488V6.15202H17.136C18.48 6.15202 19.616 6.38402 20.544 6.84802C21.472 7.31202 22.168 7.95201 22.632 8.76801C23.096 9.58401 23.328 10.52 23.328 11.576ZM18.576 13.136C18.192 13.504 17.608 13.688 16.824 13.688H14.592V9.46402H16.824C17.608 9.46402 18.192 9.64802 18.576 10.016C18.96 10.384 19.152 10.904 19.152 11.576C19.152 12.248 18.96 12.768 18.576 13.136Z" fill="white"/>
<path d="M56.5 29C54.9087 28.9261 53.6388 28.0678 52.9074 27.42C52.2884 26.8724 51.8997 26.0724 51.7412 25.02H4V4H128V25.02H58.5V29H132V0H0V29H56.5Z" fill="white"/>
<path d="M52.9074 27.42C53.6388 28.0678 54.9087 28.9261 56.5 29H58.5V25.02H57.0114C56.5634 25.02 56.2434 24.932 56.0514 24.756C55.8594 24.58 55.7634 24.292 55.7634 23.892V22.548V15.704V13.016H58.4514V9.60802H55.7634V6.34402H51.6594V9.60802H50.5V13L51.6594 13.016V15.68V22.512V23.844C51.6594 24.2659 51.6867 24.6579 51.7412 25.02C51.8997 26.0724 52.2884 26.8724 52.9074 27.42Z" fill="white"/>
</g>
</svg>
