<svg class="icon" viewBox="0 0 80 80" fill="none" xmlns="http://www.w3.org/2000/svg">
<g id="messages">
<g id="Group">
<path id="Vector" d="M70 46.6667L60 36.6667H36.6667C35.7827 36.6667 34.9348 36.3155 34.3097 35.6904C33.6846 35.0652 33.3334 34.2174 33.3334 33.3333V13.3333C33.3334 12.4493 33.6846 11.6014 34.3097 10.9763C34.9348 10.3512 35.7827 10 36.6667 10H66.6667C67.5508 10 68.3986 10.3512 69.0237 10.9763C69.6489 11.6014 70 12.4493 70 13.3333V46.6667Z" stroke="#AC2EFF" stroke-width="6" stroke-linecap="round" stroke-linejoin="round"/>
<path id="Vector_2" d="M46.6667 50V56.6667C46.6667 57.5508 46.3155 58.3986 45.6904 59.0237C45.0652 59.6489 44.2174 60 43.3333 60H20L10 70V36.6667C10 35.7827 10.3512 34.9348 10.9763 34.3097C11.6014 33.6846 12.4493 33.3334 13.3333 33.3334H20" stroke="#AC2EFF" stroke-width="6" stroke-linecap="round" stroke-linejoin="round"/>
</g>
<path id="Box-1" d="M67 12.7805H37C36.4477 12.7805 36 13.2282 36 13.7805V33C36 33.5523 36.4477 34 37 34H60.5654C60.8426 34 61.1074 34.1151 61.2965 34.3177L66.2689 39.6453C66.8882 40.3088 68 39.8706 68 38.963V13.7805C68 13.2282 67.5522 12.7805 67 12.7805Z" fill="white"/>
</g>
</svg>
