<svg class="icon" viewBox="0 0 80 80" fill="none" xmlns="http://www.w3.org/2000/svg">
<g id="task">
<path id="Cap1" d="M0 3.5C0 1.84315 1.34315 0.5 3 0.5H77C78.6569 0.5 80 1.84315 80 3.5V19.6898C80 21.3466 78.6569 22.6898 77 22.6898H3C1.34315 22.6898 0 21.3466 0 19.6898V3.5Z" fill="#AC2EFF"/>
<path id="Cap2" d="M0 32.1132C0 30.4563 1.34315 29.1132 3 29.1132H77C78.6569 29.1132 80 30.4563 80 32.1132V48.3029C80 49.9598 78.6569 51.3029 77 51.3029H3C1.34315 51.3029 0 49.9598 0 48.3029V32.1132Z" fill="#AC2EFF"/>
<path id="Cap3" d="M0 61.3102C0 59.6533 1.34315 58.3102 3 58.3102H77C78.6569 58.3102 80 59.6533 80 61.3102V77.5C80 79.1568 78.6569 80.5 77 80.5H3C1.34315 80.5 0 79.1568 0 77.5V61.3102Z" fill="#AC2EFF"/>
<g id="min">
<rect id="No1" x="6" y="8" width="17.1429" height="7.0073" fill="white"/>
<rect id="No2" x="6" y="37" width="45.7143" height="7.0073" fill="white"/>
<rect id="No3" x="6" y="66" width="28.5714" height="7.0073" fill="white"/>
</g>
</g>
</svg>
